<?xml version="1.0" standalone="no"?>
<!DOCTYPE svg PUBLIC "-//W3C//DTD SVG 20010904//EN"
 "http://www.w3.org/TR/2001/REC-SVG-20010904/DTD/svg10.dtd">
<svg version="1.0" xmlns="http://www.w3.org/2000/svg"
 width="16.000000pt" height="16.000000pt" viewBox="0 0 16.000000 16.000000"
 preserveAspectRatio="xMidYMid meet">

<g transform="translate(0.000000,16.000000) scale(0.100000,-0.100000)"
fill="#000000" stroke="none">
<path d="M0 110 c0 -23 4 -30 20 -30 26 0 26 -16 0 -32 -21 -14 -27 -28 -10
-28 24 0 50 41 50 80 0 38 -2 40 -30 40 -27 0 -30 -3 -30 -30z"/>
<path d="M100 110 c0 -23 4 -30 20 -30 11 0 20 -4 20 -10 0 -5 -9 -15 -20 -22
-21 -14 -27 -28 -10 -28 24 0 50 41 50 80 0 38 -2 40 -30 40 -27 0 -30 -3 -30
-30z"/>
</g>
</svg>
