<?xml version="1.0" encoding="UTF-8"?>
<!DOCTYPE svg PUBLIC "-//W3C//DTD SVG 1.1//EN" "http://www.w3.org/Graphics/SVG/1.1/DTD/svg11.dtd">
<svg xmlns="http://www.w3.org/2000/svg" version="1.1" width="16px" height="16px" style="shape-rendering:geometricPrecision; text-rendering:geometricPrecision; image-rendering:optimizeQuality; fill-rule:evenodd; clip-rule:evenodd" xmlns:xlink="http://www.w3.org/1999/xlink">
<g><path style="opacity:0.842" fill="#020003" d="M -0.5,1.5 C 1.5,1.5 3.5,1.5 5.5,1.5C 5.66501,4.8499 5.49834,8.18323 5,11.5C 3.55575,13.1554 1.72241,13.822 -0.5,13.5C -0.5,12.5 -0.5,11.5 -0.5,10.5C 3.30997,9.24581 3.30997,8.24581 -0.5,7.5C -0.5,5.5 -0.5,3.5 -0.5,1.5 Z"/></g>
<g><path style="opacity:0.842" fill="#020003" d="M 15.5,1.5 C 15.5,4.83333 15.5,8.16667 15.5,11.5C 13.8583,13.0808 11.8583,13.7475 9.5,13.5C 9.70298,11.3618 10.703,9.69509 12.5,8.5C 11.675,7.61432 10.675,7.28099 9.5,7.5C 9.5,5.5 9.5,3.5 9.5,1.5C 11.5,1.5 13.5,1.5 15.5,1.5 Z"/></g>
</svg>
